<svg width="16" height="16" viewBox="0 0 16 16" fill="none" xmlns="http://www.w3.org/2000/svg">
<g clip-path="url(#clip0_319_5585)">
<path d="M7.70799 2.17732C7.73676 2.12506 7.77904 2.08148 7.8304 2.05113C7.88176 2.02077 7.94033 2.00476 7.99999 2.00476C8.05965 2.00476 8.11822 2.02077 8.16958 2.05113C8.22094 2.08148 8.26321 2.12506 8.29199 2.17732L10.26 5.91332C10.3069 5.99983 10.3724 6.07488 10.4518 6.13307C10.5312 6.19126 10.6224 6.23116 10.7191 6.2499C10.8157 6.26863 10.9152 6.26575 11.0106 6.24144C11.106 6.21714 11.1948 6.17202 11.2707 6.10932L14.122 3.66666C14.1767 3.62214 14.2442 3.59614 14.3146 3.59239C14.3851 3.58865 14.4549 3.60735 14.5141 3.64582C14.5732 3.68429 14.6186 3.74053 14.6438 3.80645C14.6689 3.87237 14.6725 3.94457 14.654 4.01266L12.7647 10.8433C12.7261 10.9831 12.643 11.1065 12.528 11.1948C12.413 11.2831 12.2723 11.3315 12.1273 11.3327H3.87332C3.72821 11.3316 3.58739 11.2833 3.47225 11.195C3.3571 11.1067 3.27392 10.9832 3.23532 10.8433L1.34665 4.01332C1.32815 3.94524 1.33174 3.87304 1.35688 3.80712C1.38203 3.7412 1.42744 3.68495 1.48659 3.64649C1.54573 3.60802 1.61556 3.58931 1.68601 3.59306C1.75647 3.5968 1.82392 3.6228 1.87865 3.66732L4.72932 6.10999C4.80519 6.17268 4.89399 6.2178 4.98936 6.24211C5.08473 6.26641 5.1843 6.2693 5.28092 6.25056C5.37754 6.23183 5.46881 6.19193 5.54818 6.13374C5.62755 6.07554 5.69306 6.0005 5.73999 5.91399L7.70799 2.17732Z" stroke="#D4A853" stroke-width="1.33333" stroke-linecap="round" stroke-linejoin="round"/>
<path d="M3.33334 14H12.6667" stroke="#D4A853" stroke-width="1.33333" stroke-linecap="round" stroke-linejoin="round"/>
</g>
<defs>
<clipPath id="clip0_319_5585">
<rect width="16" height="16" fill="white"/>
</clipPath>
</defs>
</svg>
