<svg width="163" height="24" viewBox="0 0 163 24" fill="none" xmlns="http://www.w3.org/2000/svg">
<rect width="55.8889" height="1.16435" transform="translate(0 11.0614)" fill="url(#paint0_linear_319_6495)"/>
<path d="M79.5028 15.0395C79.4162 14.7037 79.2412 14.3973 78.996 14.1521C78.7508 13.9068 78.4443 13.7318 78.1085 13.6452L72.1558 12.1102C72.0542 12.0814 71.9648 12.0202 71.9012 11.936C71.8375 11.8517 71.8031 11.7491 71.8031 11.6435C71.8031 11.5379 71.8375 11.4352 71.9012 11.351C71.9648 11.2668 72.0542 11.2056 72.1558 11.1768L78.1085 9.6408C78.4442 9.55425 78.7506 9.37937 78.9958 9.13434C79.241 8.88931 79.4161 8.58307 79.5028 8.24745L81.0378 2.29471C81.0664 2.19275 81.1275 2.10292 81.2118 2.03893C81.2962 1.97494 81.3992 1.94031 81.505 1.94031C81.6109 1.94031 81.7139 1.97494 81.7982 2.03893C81.8826 2.10292 81.9437 2.19275 81.9722 2.29471L83.5063 8.24745C83.5929 8.58325 83.7679 8.88969 84.0131 9.1349C84.2583 9.38012 84.5648 9.55514 84.9006 9.64177L90.8533 11.1758C90.9557 11.204 91.046 11.2651 91.1103 11.3496C91.1746 11.434 91.2095 11.5373 91.2095 11.6435C91.2095 11.7497 91.1746 11.8529 91.1103 11.9374C91.046 12.0219 90.9557 12.0829 90.8533 12.1112L84.9006 13.6452C84.5648 13.7318 84.2583 13.9068 84.0131 14.1521C83.7679 14.3973 83.5929 14.7037 83.5063 15.0395L81.9713 20.9923C81.9427 21.0942 81.8816 21.184 81.7973 21.248C81.7129 21.312 81.6099 21.3467 81.5041 21.3467C81.3982 21.3467 81.2952 21.312 81.2109 21.248C81.1265 21.184 81.0654 21.0942 81.0369 20.9923L79.5028 15.0395Z" stroke="#F5D5D5" stroke-width="1.94059" stroke-linecap="round" stroke-linejoin="round"/>
<path d="M89.2669 2.91089V6.79206" stroke="#F5D5D5" stroke-width="1.94059" stroke-linecap="round" stroke-linejoin="round"/>
<path d="M91.2075 4.85144H87.3263" stroke="#F5D5D5" stroke-width="1.94059" stroke-linecap="round" stroke-linejoin="round"/>
<path d="M73.7422 16.495V18.4356" stroke="#F5D5D5" stroke-width="1.94059" stroke-linecap="round" stroke-linejoin="round"/>
<path d="M74.7125 17.4653H72.7719" stroke="#F5D5D5" stroke-width="1.94059" stroke-linecap="round" stroke-linejoin="round"/>
<rect width="55.8889" height="1.16435" transform="translate(107.12 11.0614)" fill="url(#paint1_linear_319_6495)"/>
<defs>
<linearGradient id="paint0_linear_319_6495" x1="0" y1="0.582176" x2="55.8889" y2="0.582176" gradientUnits="userSpaceOnUse">
<stop stop-opacity="0"/>
<stop offset="0.5" stop-color="#F5D5D5" stop-opacity="0.5"/>
<stop offset="1" stop-opacity="0"/>
</linearGradient>
<linearGradient id="paint1_linear_319_6495" x1="55.8889" y1="0.582176" x2="0" y2="0.582176" gradientUnits="userSpaceOnUse">
<stop stop-opacity="0"/>
<stop offset="0.5" stop-color="#F5D5D5" stop-opacity="0.5"/>
<stop offset="1" stop-opacity="0"/>
</linearGradient>
</defs>
</svg>
