<svg width="26" height="26" viewBox="0 0 26 26" fill="none" xmlns="http://www.w3.org/2000/svg">
<path d="M12.1401 3.4295C12.1854 3.34719 12.252 3.27855 12.3329 3.23074C12.4138 3.18293 12.506 3.15771 12.6 3.15771C12.694 3.15771 12.7862 3.18293 12.8671 3.23074C12.948 3.27855 13.0146 3.34719 13.0599 3.4295L16.1595 9.31363C16.2334 9.44988 16.3365 9.56807 16.4615 9.65973C16.5866 9.75138 16.7303 9.81421 16.8825 9.84373C17.0347 9.87324 17.1915 9.86869 17.3417 9.83041C17.4919 9.79213 17.6318 9.72107 17.7512 9.62233L22.242 5.77517C22.3282 5.70505 22.4345 5.6641 22.5454 5.6582C22.6564 5.65231 22.7664 5.68177 22.8595 5.74235C22.9527 5.80294 23.0242 5.89152 23.0638 5.99534C23.1034 6.09917 23.1091 6.21288 23.0799 6.32011L20.1043 17.0783C20.0435 17.2984 19.9127 17.4928 19.7315 17.6319C19.5504 17.7709 19.3288 17.8472 19.1005 17.849H6.10058C5.87203 17.8474 5.65025 17.7713 5.46889 17.6322C5.28754 17.4931 5.15653 17.2986 5.09574 17.0783L2.12112 6.32116C2.09198 6.21393 2.09762 6.10022 2.13723 5.99639C2.17683 5.89257 2.24836 5.80399 2.34151 5.7434C2.43467 5.68282 2.54464 5.65336 2.65561 5.65925C2.76657 5.66515 2.8728 5.7061 2.95901 5.77622L7.44876 9.62338C7.56825 9.72212 7.70811 9.79318 7.85832 9.83146C8.00853 9.86974 8.16535 9.87429 8.31752 9.84478C8.46969 9.81527 8.61344 9.75243 8.73845 9.66077C8.86346 9.56912 8.96663 9.45093 9.04054 9.31468L12.1401 3.4295Z" stroke="#D4A853" stroke-width="2.09998" stroke-linecap="round" stroke-linejoin="round"/>
<path d="M5.25009 22.0498H19.9499" stroke="#D4A853" stroke-width="2.09998" stroke-linecap="round" stroke-linejoin="round"/>
</svg>
